<?xml version="1.0" standalone="no"?>
<!DOCTYPE svg PUBLIC "-//W3C//DTD SVG 20010904//EN"
 "http://www.w3.org/TR/2001/REC-SVG-20010904/DTD/svg10.dtd">
<svg version="1.0" xmlns="http://www.w3.org/2000/svg"
 width="512.000000pt" height="512.000000pt" viewBox="0 0 512.000000 512.000000"
 preserveAspectRatio="xMidYMid meet">
<metadata>
Created by potrace 1.11, written by Peter Selinger 2001-2013
</metadata>
<g transform="translate(0.000000,512.000000) scale(0.100000,-0.100000)"
fill="#000000" stroke="none">
<path d="M699 5115 c0 -3 -1 -125 -1 -272 l-1 -268 275 -3 275 -2 0 275 0 275
-273 0 c-151 0 -274 -2 -275 -5z"/>
<path d="M3343 5092 c-13 -2 -23 -9 -24 -15 0 -7 -1 -115 -2 -240 -2 -195 0
-230 13 -236 11 -5 418 -7 475 -2 12 1 14 475 3 486 -7 7 -422 13 -465 7z"/>
<path d="M1610 4742 l0 -297 299 0 298 0 1 297 0 298 -299 0 -299 0 0 -298z"/>
<path d="M2466 4841 c-2 -3 -3 -146 -3 -317 l0 -311 317 -1 317 0 0 318 0 318
-314 0 c-172 -1 -315 -3 -317 -7z"/>
<path d="M3988 4507 l-3 -272 -265 -1 c-146 -1 -269 -2 -275 -3 -6 -1 -10 -69
-10 -184 l0 -182 -468 -1 c-257 -1 -470 -4 -473 -7 -3 -3 -6 -173 -7 -379 l-2
-373 -300 -1 c-165 -1 -304 -2 -310 -3 -7 -1 -10 -169 -9 -486 l2 -485 -490 0
-490 0 6 -137 c3 -76 8 -151 11 -168 7 -37 14 -72 21 -105 3 -14 7 -35 10 -47
9 -47 58 -171 96 -247 48 -97 101 -176 181 -269 76 -90 359 -373 451 -453 38
-32 74 -64 80 -69 6 -6 65 -52 131 -103 66 -51 125 -96 130 -100 29 -23 291
-196 330 -218 162 -92 250 -140 312 -171 l76 -36 81 43 c165 89 527 320 646
413 9 7 45 34 80 62 55 41 125 99 269 220 140 118 406 386 480 485 141 185
226 379 256 585 4 22 8 51 11 65 8 46 6 2752 -3 2760 -4 4 -48 17 -98 30 -49
12 -97 23 -105 25 -59 15 -318 77 -332 80 -16 4 -18 -16 -20 -268z"/>
<path d="M593 4159 c-14 -4 -16 -40 -17 -302 l-1 -297 25 -1 c121 -4 572 -1
577 5 8 8 7 585 -1 593 -7 8 -562 10 -583 2z"/>
<path d="M1489 4058 c0 -57 0 -554 0 -595 l1 -33 333 0 334 0 0 335 0 335
-334 0 -333 0 -1 -42z"/>
<path d="M734 3172 l-32 -3 0 -412 1 -412 413 0 414 0 0 415 0 415 -383 0
c-210 0 -396 -1 -413 -3z"/>
</g>
</svg>
